<svg xmlns="http://www.w3.org/2000/svg" xmlns:xlink="http://www.w3.org/1999/xlink" width="360.42" height="70" viewBox="0 0 360.42 70"><defs><clipPath id="a"><rect width="101.386" height="70" fill="none"/></clipPath></defs><g transform="translate(0 0)"><g transform="translate(122.806 10.37)"><path d="M163.813,27.815l4.835,1.7a8.531,8.531,0,0,1-2.826,4.888,9.17,9.17,0,0,1-6.159,1.915q-5.358,0-7.928-2.8a9.628,9.628,0,0,1-2.585-6.8,9.929,9.929,0,0,1,2.531-6.869A9.293,9.293,0,0,1,163.6,18.642V17.4h4.473v6.8h-4.647a4.015,4.015,0,0,0-1.219-2.009,2.948,2.948,0,0,0-1.955-.723q-3.026,0-3.026,5.209t3.133,5.222Q163.1,31.9,163.813,27.815Z" transform="translate(-149.15 -17.022)" fill="#fff"/><path d="M177.782,36.039H170.4V31.58h1.419l3.494-9.709h-1.5V17.412h13.391v4.459h-1.5l3.563,9.709h1.365v4.458h-9.722V31.955h1.633l-.71-2.343h-4.767l-.817,2.343h1.526Zm1.755-13.9-1.755,5.156h3.335Z" transform="translate(-149.995 -17.038)" fill="#fff"/><path d="M203.161,36.039H193.037V31.58h1.513V21.871h-1.513V17.412h10.124q1.365,0,2.53.047t2,.134a14.919,14.919,0,0,1,1.527.234,5.642,5.642,0,0,1,3.173,1.807,4.943,4.943,0,0,1,1.233,3.348,4.776,4.776,0,0,1-.751,2.624,4.494,4.494,0,0,1-1.968,1.714l2.57,4.259h1.34v4.458H208.1l-4.057-7.606h-2.29V31.58h1.407ZM201.754,21.5v3.548h.8a15.785,15.785,0,0,0,2.142-.093,1.719,1.719,0,0,0,1.018-.536,1.54,1.54,0,0,0,.415-1.139,1.586,1.586,0,0,0-.415-1.151,1.745,1.745,0,0,0-1.058-.535,17.7,17.7,0,0,0-2.25-.094Z" transform="translate(-150.895 -17.038)" fill="#fff"/><path d="M223.871,36.039h-7.379V31.58h1.42l3.494-9.709h-1.5V17.412H233.3v4.459h-1.5l3.563,9.709h1.365v4.458H227V31.955h1.634l-.71-2.343h-4.768l-.816,2.343h1.527Zm1.753-13.9-1.753,5.156H227.2Z" transform="translate(-151.827 -17.038)" fill="#fff"/><path d="M249.674,36.2h-5.8L237.93,21.871h-1.379V17.412h10.015v4.459h-1.58l2.772,7.941,2.906-7.941h-1.527V17.412h7.512v4.459h-1.379Z" transform="translate(-152.625 -17.038)" fill="#fff"/><path d="M264.163,36.039h-7.379V31.58h1.42l3.494-9.709h-1.5V17.412H273.59v4.459h-1.5l3.563,9.709h1.365v4.458H267.3V31.955h1.634l-.71-2.343h-4.768l-.816,2.343h1.527Zm1.753-13.9-1.753,5.156H267.5Z" transform="translate(-153.429 -17.038)" fill="#fff"/><path d="M286.743,36.039H279.1V31.58h1.633V21.871H279.1V17.412h8.824l6.776,9.736V21.871h-1.513V17.412H300.7v4.459h-1.62V36.28h-6.133L285.1,25.018V31.58h1.648Z" transform="translate(-154.316 -17.038)" fill="#fff"/><path d="M325.75,27.815l4.835,1.7a8.537,8.537,0,0,1-2.826,4.888,9.171,9.171,0,0,1-6.16,1.915q-5.357,0-7.928-2.8a9.631,9.631,0,0,1-2.584-6.8,9.929,9.929,0,0,1,2.531-6.869,9.293,9.293,0,0,1,11.918-1.206V17.4h4.473v6.8h-4.648a4.021,4.021,0,0,0-1.218-2.009,2.948,2.948,0,0,0-1.956-.723q-3.025,0-3.026,5.209t3.133,5.222Q325.04,31.9,325.75,27.815Z" transform="translate(-155.588 -17.022)" fill="#fff"/><path d="M351.338,36.039h-17.73V31.58h1.675V21.871h-1.675V17.412h10.646v4.459h-1.768V31.58h4.406V28.594h4.446Z" transform="translate(-156.483 -17.038)" fill="#fff"/><path d="M354.8,21.871H353.37V17.412H362.9v4.459h-.883v6.281a7.4,7.4,0,0,0,.428,3.066,1.59,1.59,0,0,0,1.54.8,1.448,1.448,0,0,0,1.339-.684,5.935,5.935,0,0,0,.416-2.744V21.871h-.938V17.412h7v4.459h-1.472v6.75a10.279,10.279,0,0,1-.75,4.232A5.438,5.438,0,0,1,367.1,35.41a9.06,9.06,0,0,1-4.286.924,12.139,12.139,0,0,1-3.629-.5,5.659,5.659,0,0,1-2.545-1.473A5.984,5.984,0,0,1,355.258,32a14.011,14.011,0,0,1-.455-4.151Z" transform="translate(-157.269 -17.038)" fill="#fff"/><path d="M385.148,36.039h-10.54V31.58h1.621V21.871h-1.621V17.412h11.383a26.476,26.476,0,0,1,5.182.389,5.08,5.08,0,0,1,2.838,1.593,4.264,4.264,0,0,1,1.031,2.839,3.325,3.325,0,0,1-.978,2.518,5.436,5.436,0,0,1-2.437,1.339,6.214,6.214,0,0,1,3.026,1.822,4.243,4.243,0,0,1,1.073,2.825,4.544,4.544,0,0,1-1.205,3.187,5.864,5.864,0,0,1-3.309,1.7A33.187,33.187,0,0,1,385.148,36.039ZM383.434,21.5v3.4h1.593a3.34,3.34,0,0,0,2.13-.469,1.644,1.644,0,0,0,.482-1.232,1.774,1.774,0,0,0-.443-1.178q-.442-.523-2.424-.522Zm0,6.789v3.669h1.62a4.625,4.625,0,0,0,2.235-.4,1.519,1.519,0,0,0,.67-1.42,1.65,1.65,0,0,0-.6-1.406,4.256,4.256,0,0,0-2.331-.442Z" transform="translate(-158.113 -17.038)" fill="#fff"/></g><g transform="translate(122.833 41.991)"><path d="M149.178,59.594a9.638,9.638,0,0,1,1.139-4.513,9.484,9.484,0,0,1,3.494-3.656,8.685,8.685,0,0,1,1.734-.831,11.615,11.615,0,0,1,1.935-.475,13.9,13.9,0,0,1,2.2-.167q5.008,0,7.754,2.933a10.242,10.242,0,0,1,2.062,3.134,9.507,9.507,0,0,1-2.142,10.35,10.287,10.287,0,0,1-7.673,2.879,10.68,10.68,0,0,1-7.579-2.7A9.023,9.023,0,0,1,149.178,59.594Zm8.088,0a9.747,9.747,0,0,0,.6,4.191,1.907,1.907,0,0,0,1.807,1.1,1.964,1.964,0,0,0,1.822-1.057,9.829,9.829,0,0,0,.6-4.232,10.008,10.008,0,0,0-.59-4.178,1.93,1.93,0,0,0-1.835-1.1,1.955,1.955,0,0,0-1.807,1.058A9.727,9.727,0,0,0,157.266,59.594Z" transform="translate(-149.178 -49.952)" fill="#fff"/><path d="M184.532,68.97H173.217V64.51h1.955V54.8H173.15V50.343H191.5v6.133h-4.955V54.8h-4.165v2.865h3.214v3.789h-3.214V64.51h2.156Z" transform="translate(-150.131 -49.968)" fill="#fff"/><path d="M205.309,68.96h-4.191V62.987h4.191q.75,2.437,2.826,2.437,1.5,0,1.5-1.205a1.284,1.284,0,0,0-.522-1.045,12.331,12.331,0,0,0-2.371-1.258,22.008,22.008,0,0,1-3.347-1.782,5.767,5.767,0,0,1-1.714-1.888,5.54,5.54,0,0,1,.978-6.695,6.051,6.051,0,0,1,4.124-1.461,6.346,6.346,0,0,1,4.152,1.393V50.333h4.216v5.3h-4.164a2.777,2.777,0,0,0-2.705-2.2q-1.365,0-1.365,1.166a.969.969,0,0,0,.388.843,20.342,20.342,0,0,0,2.424,1.3,36.915,36.915,0,0,1,3.669,1.994,4.9,4.9,0,0,1,.958.863,6.564,6.564,0,0,1,.81,1.146,5.717,5.717,0,0,1,.736,2.839,5.207,5.207,0,0,1-1.741,3.964,6.139,6.139,0,0,1-4.392,1.647,7.376,7.376,0,0,1-4.459-1.46Z" transform="translate(-151.237 -49.958)" fill="#fff"/><path d="M230.315,69.13h-5.865L219.2,54.8h-1.286V50.343h9.655V54.8h-1.392l2.2,8.02,2.786-8.02H229.78V50.343h8.115V54.8h-1.38l2.826,8.02,2.222-8.02h-1.34V50.343h7.513V54.8h-1.286l-5.3,14.328h-5.785l-2.518-7.178Z" transform="translate(-151.911 -49.968)" fill="#fff"/><path d="M268.274,68.97H250.5V64.51h1.446V54.8h-1.473V50.343h17.8V56.3h-4.889V54.8h-4.231v2.865h3.683v3.789h-3.683V64.51h4.231v-1.5h4.889Z" transform="translate(-153.205 -49.968)" fill="#fff"/><path d="M280.756,68.97h-8.664V64.51h1.46V54.8h-1.46V50.343h8.919a26.981,26.981,0,0,1,4.981.375,9.723,9.723,0,0,1,3.656,1.54,8.1,8.1,0,0,1,2.678,3.187,9.29,9.29,0,0,1,.737,2.062,10.222,10.222,0,0,1,.254,2.3,9.48,9.48,0,0,1-1.03,4.419,7.937,7.937,0,0,1-2.584,3.039,8.366,8.366,0,0,1-3.348,1.38A35.141,35.141,0,0,1,280.756,68.97Zm0-14.167V64.51h.683q2.544,0,3.308-1.353a6.953,6.953,0,0,0,.75-3.4,9.471,9.471,0,0,0-.322-2.437A3.446,3.446,0,0,0,284,55.457a4.968,4.968,0,0,0-2.972-.655Z" transform="translate(-154.064 -49.968)" fill="#fff"/><path d="M314.684,68.97h-17.77V64.51h1.446V54.8h-1.473V50.343h17.8V56.3H309.8V54.8h-4.231v2.865h3.683v3.789h-3.683V64.51H309.8v-1.5h4.889Z" transform="translate(-155.05 -49.968)" fill="#fff"/><path d="M325.619,68.97h-7.646V64.51h1.633V54.8h-1.633V50.343H326.8l6.776,9.735V54.8H332.06V50.343h7.512V54.8h-1.62V69.211h-6.133l-7.847-11.262V64.51h1.648Z" transform="translate(-155.888 -49.968)" fill="#fff"/></g><g transform="translate(0 0)"><g clip-path="url(#a)"><path d="M25.746,6.222h92.413a4.5,4.5,0,0,1,4.486,4.5v61a4.492,4.492,0,0,1-4.486,4.5H25.746a4.492,4.492,0,0,1-4.486-4.5v-61a4.5,4.5,0,0,1,4.486-4.5" transform="translate(-21.26 -6.222)" fill="#fff" fill-rule="evenodd"/><path d="M64.821,14.512l.125,54.106c0,.031-4.594.185-5.37.156l-17.09-.015c-4.113-.078-8.426.248-12.355,0-1.659-.606-1.474-2.731-1.848-4.161V41.581l-.078-18.41c-.2-1.38.188-2.7-.092-4.081-.03-.388.326-.838.092-1.3.311-.185-.092-.388.14-.62.233-.341.2-.777.466-1.149.576-.388.854-1.319,1.707-1.3l14.73-.2a6.281,6.281,0,0,0,2.158-.078l15.629.078Z" transform="translate(-21.532 -6.549)" fill="#fe0" fill-rule="evenodd"/><path d="M64.821,14.512l.125,54.106c0,.031-4.594.185-5.37.156l-17.09-.015c-4.113-.078-8.426.248-12.355,0-1.659-.606-1.474-2.731-1.848-4.161V41.581l-.078-18.41c-.2-1.38.188-2.7-.092-4.081-.03-.388.326-.838.092-1.3.311-.185-.092-.388.14-.62.233-.341.2-.777.466-1.149.576-.388.854-1.319,1.707-1.3l14.73-.2a6.281,6.281,0,0,0,2.158-.078l15.629.078Z" transform="translate(-21.532 -6.549)" fill="none" stroke="#fe0" stroke-miterlimit="2.613" stroke-width="0.048"/><path d="M117.933,16.01l.358,1.382-.048,22.1-.155,26.292a3.468,3.468,0,0,1-1.553,2.2c-1.877.883-3.957.528-5.835.573l-18.019-.031-22.834.031c-.977.047-2.358.047-3.382.047l-.078-1.46-.015-52.461-.032-.218,25.409-.155h21.759l.031-.045c1.692.077,3.633.077,4.393,1.737" transform="translate(-23.052 -6.542)" fill="#e50019" fill-rule="evenodd"/><path d="M117.933,16.01l.358,1.382-.048,22.1-.155,26.292a3.468,3.468,0,0,1-1.553,2.2c-1.877.883-3.957.528-5.835.573l-18.019-.031-22.834.031c-.977.047-2.358.047-3.382.047l-.078-1.46-.015-52.461-.032-.218,25.409-.155h21.759l.031-.045C115.232,14.35,117.173,14.35,117.933,16.01Z" transform="translate(-23.052 -6.542)" fill="none" stroke="#b30114" stroke-miterlimit="2.613" stroke-width="0.048"/><path d="M66.907,8.249c.047.435-.078.809-.558.809a4.34,4.34,0,0,0,.761,1.785,7.246,7.246,0,0,0,.931-1.74c-.466-.015-.483-.573-.388-.883a6.547,6.547,0,0,1,2.265-.078c.123.218.278.543.078.729l-.575.187-1.863,3.2c-.729-.125-1.923.419-2.251-.418-.4-.994-.821-1.925-1.287-2.857-.373.108-.636-.109-.606-.45,0-.2,0-.466.233-.5,1.024.248,2.265-.28,3.259.215" transform="translate(-22.936 -6.294)" fill="#1a1818" fill-rule="evenodd"/><path d="M74.347,8.141a29.914,29.914,0,0,1,1.287,3.074c.5.356.886.2,1.46.109-.17-.791.713-2.639-.743-2.453-.033-.419-.033-.992.573-.807l2.1.078c.761.729,1.334,1.66,2.142,2.033-.032-.543.171-1.537-.731-1.3-.03-.419-.03-.992.576-.807.776.185,1.815-.357,2.1.466.03.636-.576.3-.854.528v2.98c-.466.4-1.274.217-1.9.187-.683-.7-1.3-1.662-2.08-1.972.173.388-.371,1.351.466,1.226a.565.565,0,0,1,.109.651,4.543,4.543,0,0,1-2.5,0l-.14.125-3.274-.03a.789.789,0,0,1-.048-.746l.573-.155a2.748,2.748,0,0,0-1.83-.263l-.17.185c.341.078.776.466.511.9a7.909,7.909,0,0,1-2.5.078.705.705,0,0,1-.015-.7c1.165-.11,1.243-1.537,1.785-2.361-.248-.248-1.086-.263-.668-.916l.388-.215Z" transform="translate(-23.173 -6.294)" fill="#1a1818" fill-rule="evenodd"/><path d="M69.785,9.019h0Z" transform="translate(-23.189 -6.334)" fill="#b30114" fill-rule="evenodd"/><path d="M69.785,9.019h0Z" transform="translate(-23.189 -6.334)" fill="none" stroke="#b30114" stroke-miterlimit="2.613" stroke-width="0.048"/><path d="M92.214,8.029c.218,0,.5-.047.528.215,0,.543.125,1.165-.218,1.585L91.3,9.752a1.564,1.564,0,0,0-1.863-.7c-.34.233-.7.356-.806.777a1.214,1.214,0,0,0,.806,1.412,1.8,1.8,0,0,0,1.785-.791c.561.078,1.212-.156,1.678.185a3.187,3.187,0,0,1-1.77,1.489c-1.46.233-3.352.358-4.237-1.069a1.935,1.935,0,0,1,.233-2.19,4.026,4.026,0,0,1,4.283-.621Z" transform="translate(-23.859 -6.289)" fill="#1a1818" fill-rule="evenodd"/><path d="M90.91,9.212l.309.358Z" transform="translate(-24.029 -6.341)" fill="#b30114" fill-rule="evenodd"/><path d="M90.91,9.212l.309.358Z" transform="translate(-24.029 -6.341)" fill="none" stroke="#b30114" stroke-miterlimit="2.613" stroke-width="0.048"/><path d="M123.286,9.521a4.562,4.562,0,0,1,1.009,2.623l-.078,56.79c.108,1.958-.1,3.851-1.785,5-1.119.884-2.734.589-4.223.666l-11.936-.078-.185-.2V70.426l.326-.11,14.372-.078a2.111,2.111,0,0,0,1.414-1.117c.155-4.315.092-9.2.092-13.425L122.2,55.6l.092-5.993.078-21.574-.093-.108q.117-7.124,0-14.2a2.069,2.069,0,0,0-1.289-1.5c-1.97-.187-3.74-.1-5.79-.1a18.861,18.861,0,0,1-.185-3.88l.218-.215c2.312.092,5.012-.436,7.046.573Z" transform="translate(-24.632 -6.292)" fill="#1a1818" fill-rule="evenodd"/><path d="M123.286,9.521a4.562,4.562,0,0,1,1.009,2.623l-.078,56.79c.108,1.958-.1,3.851-1.785,5-1.119.884-2.734.589-4.223.666l-11.936-.078-.185-.2V70.426l.326-.11,14.372-.078a2.111,2.111,0,0,0,1.414-1.117c.155-4.315.092-9.2.092-13.425L122.2,55.6l.092-5.993.078-21.574-.093-.108q.117-7.124,0-14.2a2.069,2.069,0,0,0-1.289-1.5c-1.97-.187-3.74-.1-5.79-.1a18.861,18.861,0,0,1-.185-3.88l.218-.215c2.312.092,5.012-.436,7.046.573Z" transform="translate(-24.632 -6.292)" fill="none" stroke="#191c23" stroke-miterlimit="2.613" stroke-width="0.048"/><rect width="0.031" height="0.31" transform="translate(99.662 10.151)" fill="#b30114"/><rect width="0.031" height="0.31" transform="translate(99.662 10.151)" fill="none" stroke="#b30114" stroke-miterlimit="2.613" stroke-width="0.048"/><path d="M56.4,21.385a1,1,0,0,0,1.179-.591c-.078-.123.045-.233.123-.31l3.975.014c0,2.687.215,5.5.077,8.226l-7.668.11c-.466-.374-.28-1.12-.668-1.645A6.006,6.006,0,0,0,47.084,24.6,6.094,6.094,0,0,0,43,27.268a6.214,6.214,0,0,0-.326,5.045,5.989,5.989,0,0,0,5.788,3.382,5.913,5.913,0,0,0,4.951-2.887,7.239,7.239,0,0,0,.544-1.537l.31-.108c2.576.185,5.122-.156,7.7.031-.5,4.082-4.191,7.775-8.008,8.925a22.786,22.786,0,0,1-16.886-1.537l-2.39-1.723A9.281,9.281,0,0,1,32.742,27c2.391-4.857,7.48-7.2,12.758-7.512a26.877,26.877,0,0,1,10.9,1.895" transform="translate(-21.689 -6.749)" fill="#1a1818" fill-rule="evenodd"/><path d="M58.476,21.093l-.232.232Z" transform="translate(-22.73 -6.814)" fill="#b30114" fill-rule="evenodd"/><path d="M58.476,21.093l-.232.232Z" transform="translate(-22.73 -6.814)" fill="none" stroke="#b30114" stroke-miterlimit="2.613" stroke-width="0.048"/><path d="M105.706,25.546c4.624,2.561,6.921,7.653,6.549,13.193l-.045,3.322a12.5,12.5,0,0,0,4.236,0c.11.109-.03.45.218.373-1.335,2.591-3.85,4.859-5.6,7.17-2.235,2.686-5.587,3.181-8.707,4.052-5.325,2.251-10.975,4.1-17.323,3.492a21.3,21.3,0,0,1-7.278-1.692c-1.63.838-.388,2.964-1.319,4.158a2.025,2.025,0,0,1-.684.033c-.653-.187-.343-1.024-.343-1.507a5.481,5.481,0,0,0,.156-.807c.032-.684.483-1.334.25-2A11.877,11.877,0,0,0,73.64,53.75a18.409,18.409,0,0,0-1.707.791c-.466-.2-.31-.854-.761-1.117.45-.964,2.111-.978,2.187-2.313.048-2.08.777-4.316.031-6.318-.869-2.514-1.955-4.749-2.887-7.248-.466-.528-1.226-.994-.838-1.815.295-.405.731-.405,1.1-.5a1.193,1.193,0,0,1,.666.93c-.2,1.352.575,2.421.931,3.586,1.1,1.879,1.877,4.083,3.2,5.882.561.311.838.7,1.491.7-.7-2.048-1.739-4.129-2.608-6.161-.31-.389-1.134-.684-.807-1.4.249-.576.573-.5,1.21-.576.2.543.745,1.042.388,1.662a52.978,52.978,0,0,0,3.7,6.194,9.38,9.38,0,0,0,1.427-2.734c2.5-2.421,2.08-6.068,3.662-8.892,1.149-2.08,1.8-4.5,4.005-5.991,2.576-2.39,5.278-4.518,8.739-4.984,3.274-.138,6.472.232,8.94,2.1" transform="translate(-23.18 -6.906)" fill="#1a1818" fill-rule="evenodd"/><path d="M32.324,8.444l-.078,3.9c-1.94.279-4.005-.156-5.945.184a1.989,1.989,0,0,0-1.272,1.212v8.382L25.495,68.9a1.81,1.81,0,0,0,1.195,1.46c5.091.248,10.369.015,15.025.078l.185.17.11,3.926-.4.218L27,74.719a4.114,4.114,0,0,1-3.087-2.576l-.295-1.3-.28-33.075-.185-24.415A4.551,4.551,0,0,1,25.387,8.77c2.047-.961,4.36-.326,6.767-.514Z" transform="translate(-21.334 -6.302)" fill="#1a1818" fill-rule="evenodd"/><path d="M32.324,8.444l-.078,3.9c-1.94.279-4.005-.156-5.945.184a1.989,1.989,0,0,0-1.272,1.212v8.382L25.495,68.9a1.81,1.81,0,0,0,1.195,1.46c5.091.248,10.369.015,15.025.078l.185.17.11,3.926-.4.218L27,74.719a4.114,4.114,0,0,1-3.087-2.576l-.295-1.3-.28-33.075-.185-24.415A4.551,4.551,0,0,1,25.387,8.77c2.047-.961,4.36-.326,6.767-.514Z" transform="translate(-21.334 -6.302)" fill="none" stroke="#191c23" stroke-miterlimit="2.613" stroke-width="0.048"/><path d="M35.325,23.744l-.373.419Z" transform="translate(-21.804 -6.919)" fill="#b30114" fill-rule="evenodd"/><path d="M35.325,23.744l-.373.419Z" transform="translate(-21.804 -6.919)" fill="none" stroke="#b30114" stroke-miterlimit="2.613" stroke-width="0.048"/><path d="M34.758,24.31l-.388.388Z" transform="translate(-21.781 -6.941)" fill="#b30114" fill-rule="evenodd"/><path d="M34.758,24.31l-.388.388Z" transform="translate(-21.781 -6.941)" fill="none" stroke="#b30114" stroke-miterlimit="2.613" stroke-width="0.048"/><path d="M34.245,24.988l-.263.218Z" transform="translate(-21.766 -6.968)" fill="#b30114" fill-rule="evenodd"/><path d="M34.245,24.988l-.263.218Z" transform="translate(-21.766 -6.968)" fill="none" stroke="#b30114" stroke-miterlimit="2.613" stroke-width="0.048"/><path d="M44.733,26.072l-.7.791Z" transform="translate(-22.165 -7.012)" fill="#b30114" fill-rule="evenodd"/><path d="M44.733,26.072l-.7.791Z" transform="translate(-22.165 -7.012)" fill="none" stroke="#b30114" stroke-miterlimit="2.613" stroke-width="0.048"/><path d="M53.749,26.9l.265.2Z" transform="translate(-22.552 -7.044)" fill="#b30114" fill-rule="evenodd"/><path d="M53.749,26.9l.265.2Z" transform="translate(-22.552 -7.044)" fill="none" stroke="#b30114" stroke-miterlimit="2.613" stroke-width="0.048"/><rect width="0.031" height="0.495" transform="translate(99.662 20.783)" fill="#b30114"/><rect width="0.031" height="0.495" transform="translate(99.662 20.783)" fill="none" stroke="#b30114" stroke-miterlimit="2.613" stroke-width="0.048"/><rect width="0.031" height="0.215" transform="translate(99.662 21.529)" fill="#b30114"/><rect width="0.031" height="0.216" transform="translate(99.662 21.529)" fill="none" stroke="#b30114" stroke-miterlimit="2.613" stroke-width="0.048"/><path d="M44.035,34.282l.4.435Z" transform="translate(-22.165 -7.338)" fill="#b30114" fill-rule="evenodd"/><path d="M44.035,34.282l.4.435Z" transform="translate(-22.165 -7.338)" fill="none" stroke="#b30114" stroke-miterlimit="2.613" stroke-width="0.048"/><path d="M53.594,34.282l-.653.621Z" transform="translate(-22.519 -7.338)" fill="#b30114" fill-rule="evenodd"/><path d="M53.594,34.282l-.653.621Z" transform="translate(-22.519 -7.338)" fill="none" stroke="#b30114" stroke-miterlimit="2.613" stroke-width="0.048"/><rect width="0.031" height="0.916" transform="translate(99.662 27.021)" fill="#b30114"/><rect width="0.031" height="0.916" transform="translate(99.662 27.022)" fill="none" stroke="#b30114" stroke-miterlimit="2.613" stroke-width="0.048"/><path d="M97.571,32.793c-.047,1.039-.994,1.877-1.086,2.932l-.451,1.958c-1.319-2.283-4.238-3.478-7-3.7-.466-.015-1.2.185-1.2-.466l.11-.5c.806-1.086,1.086-2.5,2.125-3.4a7.816,7.816,0,0,1,7.5,3.167" transform="translate(-23.907 -7.151)" fill="#fff" fill-rule="evenodd"/><path d="M97.571,32.793c-.047,1.039-.994,1.877-1.086,2.932l-.451,1.958c-1.319-2.283-4.238-3.478-7-3.7-.466-.015-1.2.185-1.2-.466l.11-.5c.806-1.086,1.086-2.5,2.125-3.4A7.816,7.816,0,0,1,97.571,32.793Z" transform="translate(-23.907 -7.151)" fill="none" stroke="#fff" stroke-miterlimit="2.613" stroke-width="0.048"/><path d="M93.923,36.583a18.73,18.73,0,0,1,2.08,3.2,10.65,10.65,0,0,0-.155,3c-2.033-.7-3.773-2.438-6.086-2.656a5.277,5.277,0,0,0-2.621-.511,17.275,17.275,0,0,1,.015-3.57c-.092-.809.838-.994,1.3-1.3,2,.218,4.066.373,5.463,1.848" transform="translate(-23.876 -7.356)" fill="#fff" fill-rule="evenodd"/><path d="M93.923,36.583a18.73,18.73,0,0,1,2.08,3.2,10.65,10.65,0,0,0-.155,3c-2.033-.7-3.773-2.438-6.086-2.656a5.277,5.277,0,0,0-2.621-.511,17.275,17.275,0,0,1,.015-3.57c-.092-.809.838-.994,1.3-1.3C90.461,34.953,92.525,35.108,93.923,36.583Z" transform="translate(-23.876 -7.356)" fill="none" stroke="#fff" stroke-miterlimit="2.613" stroke-width="0.048"/><path d="M89.309,34.735h0Z" transform="translate(-23.965 -7.356)" fill="#b30114" fill-rule="evenodd"/><path d="M89.309,34.735h0Z" transform="translate(-23.965 -7.356)" fill="none" stroke="#b30114" stroke-miterlimit="2.613" stroke-width="0.048"/><rect width="0.031" height="0.713" transform="translate(99.662 29.227)" fill="#b30114"/><rect width="0.031" height="0.713" transform="translate(99.662 29.227)" fill="none" stroke="#b30114" stroke-miterlimit="2.613" stroke-width="0.048"/><path d="M34.272,36.886l.265.2Z" transform="translate(-21.777 -7.441)" fill="#b30114" fill-rule="evenodd"/><path d="M34.272,36.886l.265.2Z" transform="translate(-21.777 -7.441)" fill="none" stroke="#b30114" stroke-miterlimit="2.613" stroke-width="0.048"/><path d="M35.533,38.049l.358.358Z" transform="translate(-21.827 -7.488)" fill="#b30114" fill-rule="evenodd"/><path d="M35.533,38.049l.358.358Z" transform="translate(-21.827 -7.488)" fill="none" stroke="#b30114" stroke-miterlimit="2.613" stroke-width="0.048"/><path d="M59.346,38.421l-.31.31Z" transform="translate(-22.762 -7.502)" fill="#b30114" fill-rule="evenodd"/><path d="M59.346,38.421l-.31.31Z" transform="translate(-22.762 -7.502)" fill="none" stroke="#b30114" stroke-miterlimit="2.613" stroke-width="0.048"/><path d="M54.562,44.821a5.415,5.415,0,0,0,2.313.776c.263-.045.636-.045.729-.388l.185-.5a21.161,21.161,0,0,1,4.083,0l.108,8.2-.216.2c-2.655-.046-5.139.062-7.59,0a6.621,6.621,0,0,0-1.2-2.436c-1.612-1.77-4.391-2.128-6.674-1.507A4.916,4.916,0,0,0,43,52.055a5.778,5.778,0,0,0,.776,5.773A6.184,6.184,0,0,0,50.2,59.676a5.424,5.424,0,0,0,3.863-4.068c2.531-.185,5.465-.123,8.011-.078a9.554,9.554,0,0,1-2.484,5.184c-4.5,4.889-12.014,5.122-18.129,3.633-3.647-1.009-7.886-3.167-8.847-7.28a9.638,9.638,0,0,1,3.91-10.119c4.937-3.773,12.139-4.051,18.037-2.128" transform="translate(-21.702 -7.71)" fill="#1a1818" fill-rule="evenodd"/><path d="M36.526,47.2l-.216.265Z" transform="translate(-21.858 -7.851)" fill="#b30114" fill-rule="evenodd"/><path d="M36.526,47.2l-.216.265Z" transform="translate(-21.858 -7.851)" fill="none" stroke="#b30114" stroke-miterlimit="2.613" stroke-width="0.048"/><path d="M36.14,47.489l-.2.218Z" transform="translate(-21.843 -7.863)" fill="#b30114" fill-rule="evenodd"/><path d="M36.14,47.489l-.2.218Z" transform="translate(-21.843 -7.863)" fill="none" stroke="#b30114" stroke-miterlimit="2.613" stroke-width="0.048"/><path d="M87.5,46.725c-.2.433-.745.326-1.087.543-1.878,1.039-4.313,2.048-6.457,1.164l-.746-.466a.289.289,0,0,0,.034-.156c2.886.574,5.2-2.578,8.177-1.273Z" transform="translate(-23.564 -7.812)" fill="#fff" fill-rule="evenodd"/><path d="M87.5,46.725c-.2.433-.745.326-1.087.543-1.878,1.039-4.313,2.048-6.457,1.164l-.746-.466a.289.289,0,0,0,.034-.156c2.886.574,5.2-2.578,8.177-1.273Z" transform="translate(-23.564 -7.812)" fill="none" stroke="#fff" stroke-miterlimit="2.613" stroke-width="0.048"/><path d="M79.235,47.8c-.078.045-.032.108-.032.185l-.078-.185Z" transform="translate(-23.56 -7.875)" fill="#b30114" fill-rule="evenodd"/><path d="M79.235,47.8c-.078.045-.032.108-.032.185l-.078-.185Z" transform="translate(-23.56 -7.875)" fill="none" stroke="#b30114" stroke-miterlimit="2.613" stroke-width="0.048"/><path d="M113.029,46.85a.509.509,0,0,1,.45.17c-.418.218-.185.684-.295,1.025-.777.17-1.738.2-2.018,1.134-.248.806-1.365,0-1.489.729-1.226-.824-2.313.387-3.7.077a6.661,6.661,0,0,1-3.32-.9c2.018.388,4.547.746,6.316-.558a23.12,23.12,0,0,0,3.384-3.042c-.077.45.015,1.257.666,1.366" transform="translate(-24.496 -7.783)" fill="#fff" fill-rule="evenodd"/><path d="M113.029,46.85a.509.509,0,0,1,.45.17c-.418.218-.185.684-.295,1.025-.777.17-1.738.2-2.018,1.134-.248.806-1.365,0-1.489.729-1.226-.824-2.313.387-3.7.077a6.661,6.661,0,0,1-3.32-.9c2.018.388,4.547.746,6.316-.558a23.12,23.12,0,0,0,3.384-3.042C112.286,45.934,112.378,46.741,113.029,46.85Z" transform="translate(-24.496 -7.783)" fill="none" stroke="#fff" stroke-miterlimit="2.613" stroke-width="0.048"/><path d="M34.858,48.748l-.31.31Z" transform="translate(-21.788 -7.913)" fill="#b30114" fill-rule="evenodd"/><path d="M34.858,48.748l-.31.31Z" transform="translate(-21.788 -7.913)" fill="none" stroke="#b30114" stroke-miterlimit="2.613" stroke-width="0.048"/><path d="M53.313,50.495l.218.232Z" transform="translate(-22.534 -7.982)" fill="#b30114" fill-rule="evenodd"/><path d="M53.313,50.495l.218.232Z" transform="translate(-22.534 -7.982)" fill="none" stroke="#b30114" stroke-miterlimit="2.613" stroke-width="0.048"/><path d="M53.83,51.045l.232.2Z" transform="translate(-22.555 -8.004)" fill="#b30114" fill-rule="evenodd"/><path d="M53.83,51.045l.232.2Z" transform="translate(-22.555 -8.004)" fill="none" stroke="#b30114" stroke-miterlimit="2.613" stroke-width="0.048"/><path d="M54.137,51.368l.093.263Z" transform="translate(-22.567 -8.017)" fill="#b30114" fill-rule="evenodd"/><path d="M54.137,51.368l.093.263Z" transform="translate(-22.567 -8.017)" fill="none" stroke="#b30114" stroke-miterlimit="2.613" stroke-width="0.048"/><rect width="0.031" height="0.263" transform="translate(99.662 47.542)" fill="#b30114"/><rect width="0.031" height="0.263" transform="translate(99.662 47.541)" fill="none" stroke="#b30114" stroke-miterlimit="2.613" stroke-width="0.048"/><rect width="0.031" height="0.203" transform="translate(99.662 47.959)" fill="#b30114"/><rect width="0.031" height="0.203" transform="translate(99.662 47.96)" fill="none" stroke="#b30114" stroke-miterlimit="2.613" stroke-width="0.048"/><rect width="0.031" height="0.405" transform="translate(99.662 48.518)" fill="#b30114"/><rect width="0.031" height="0.405" transform="translate(99.662 48.518)" fill="none" stroke="#b30114" stroke-miterlimit="2.613" stroke-width="0.048"/><rect width="0.031" height="0.278" transform="translate(99.662 49.312)" fill="#b30114"/><rect width="0.031" height="0.278" transform="translate(99.662 49.311)" fill="none" stroke="#b30114" stroke-miterlimit="2.613" stroke-width="0.048"/><path d="M44.131,58.3l.218.2Z" transform="translate(-22.169 -8.293)" fill="#b30114" fill-rule="evenodd"/><path d="M44.131,58.3l.218.2Z" transform="translate(-22.169 -8.293)" fill="none" stroke="#b30114" stroke-miterlimit="2.613" stroke-width="0.048"/><path d="M53.9,58.415l-.263.2Z" transform="translate(-22.547 -8.297)" fill="#b30114" fill-rule="evenodd"/><path d="M53.9,58.415l-.263.2Z" transform="translate(-22.547 -8.297)" fill="none" stroke="#b30114" stroke-miterlimit="2.613" stroke-width="0.048"/><path d="M44.439,58.626l.435.448Z" transform="translate(-22.181 -8.306)" fill="#b30114" fill-rule="evenodd"/><path d="M44.439,58.626l.435.448Z" transform="translate(-22.181 -8.306)" fill="none" stroke="#b30114" stroke-miterlimit="2.613" stroke-width="0.048"/><path d="M53.527,58.819l-.31.341Z" transform="translate(-22.53 -8.313)" fill="#b30114" fill-rule="evenodd"/><path d="M53.527,58.819l-.31.341Z" transform="translate(-22.53 -8.313)" fill="none" stroke="#b30114" stroke-miterlimit="2.613" stroke-width="0.048"/><rect width="0.031" height="0.203" transform="translate(99.662 51.126)" fill="#b30114"/><rect width="0.031" height="0.203" transform="translate(99.662 51.126)" fill="none" stroke="#b30114" stroke-miterlimit="2.613" stroke-width="0.048"/><path d="M34.175,60.743l.2.248Z" transform="translate(-21.773 -8.39)" fill="#b30114" fill-rule="evenodd"/><path d="M34.175,60.743l.2.248Z" transform="translate(-21.773 -8.39)" fill="none" stroke="#b30114" stroke-miterlimit="2.613" stroke-width="0.048"/><path d="M61.041,61.033l-.358.388Z" transform="translate(-22.827 -8.401)" fill="#b30114" fill-rule="evenodd"/><path d="M61.041,61.033l-.358.388Z" transform="translate(-22.827 -8.401)" fill="none" stroke="#b30114" stroke-miterlimit="2.613" stroke-width="0.048"/><path d="M60.5,61.632l-.5.511Z" transform="translate(-22.8 -8.425)" fill="#b30114" fill-rule="evenodd"/><path d="M60.5,61.632l-.5.511Z" transform="translate(-22.8 -8.425)" fill="none" stroke="#b30114" stroke-miterlimit="2.613" stroke-width="0.048"/><path d="M59.879,62.2l-.278.3Z" transform="translate(-22.784 -8.448)" fill="#b30114" fill-rule="evenodd"/><path d="M59.879,62.2l-.278.3Z" transform="translate(-22.784 -8.448)" fill="none" stroke="#b30114" stroke-miterlimit="2.613" stroke-width="0.048"/><path d="M58.323,73.026a5.007,5.007,0,0,1,.093,1.675c-.171.2-.5.078-.807.1-.233-.28-.1-.823-.591-.886-.45.11-1.195-.248-1.3.3-.046.978,1.955-.185,1.489,1.212-.419.5-1.846-.358-1.413.791.311.155.854.155.7.7l-.093.278c-1.194-.046-2.5.31-3.569-.093-.078-.573.31-.807.776-.883-.2-.947.636-2.422-.7-2.376-.047-.263-.185-.651.109-.822Z" transform="translate(-22.515 -8.878)" fill="#1a1818" fill-rule="evenodd"/><path d="M70.3,73.208c-.078.28-.047.621-.421.731a2.627,2.627,0,0,0,.528,1.195,2.7,2.7,0,0,0,.576-1.195c-.265-.156-.5-.28-.388-.653-.063-.185.077-.263.17-.356a13.576,13.576,0,0,1,2.528.093c.156.373.078.916-.388.916a3.194,3.194,0,0,0,.561,1.38c.4-.372.4-.884.636-1.3a.824.824,0,0,1-.343-.916c.543-.326,1.382-.093,2.081-.171.279.156.109.481.125.744-.125.265-.28.109-.544.156-.746,1.041-.931,2.375-1.662,3.351l-1.5-.078-.713-1.287c-.591.278-.358,1.5-1.289,1.365H69.185c-.651-1.086-.884-2.31-1.582-3.351a.249.249,0,0,1-.341-.341c-.032-.2-.032-.636.341-.481.931.123,1.97-.373,2.7.2" transform="translate(-23.088 -8.874)" fill="#1a1818" fill-rule="evenodd"/><path d="M81.909,72.93a5.245,5.245,0,0,1,.108,1.659c-.218.2-.573.109-.791.109a1,1,0,0,0-.7-.869c-.388.11-1.2-.263-1.2.373,0,.777,2.206-.139,1.2,1.29-.388.108-1.2-.31-1.2.326-.031.2.078.543.358.388.418.233.728-.14,1.117-.109.482-.186.42-1.009,1.1-.6a2.843,2.843,0,0,1,0,1.612c-1.614.078-3.51.078-5.2,0-.218-.17-.078-.5-.109-.776,1.226.11.45-1.427.653-2.126-.156-.466-1.119-.418-.653-1.194l.125-.11Z" transform="translate(-23.455 -8.873)" fill="#1a1818" fill-rule="evenodd"/><path d="M89.492,74.215a2.311,2.311,0,0,1-.156,1.877c-1.039,1.475-3.056.994-4.748,1.087-.45.077-.947-.156-1.49-.078-.187-.17-.077-.544-.032-.776.218-.156.761-.123.606-.511-.28-.731.466-1.988-.574-2.081-.187-.17-.109-.528-.032-.728a28.94,28.94,0,0,1,4.812-.078,2.665,2.665,0,0,1,1.614,1.287" transform="translate(-23.714 -8.872)" fill="#1a1818" fill-rule="evenodd"/><path d="M95.443,72.894a6.731,6.731,0,0,1,.03,1.692c-.123.2-.466.078-.7.109-.185-.326-.232-.947-.729-.914-.357.123-1.164-.3-1.086.34,0,.9,2.017-.217,1.4,1.195-.419.358-1.785-.341-1.4.776a1.8,1.8,0,0,0,1.4,0c.465-.2.45-.961,1.086-.681-.015.558.341,1.52-.28,1.768L90.429,77.1a.586.586,0,0,1-.155-.821c.125-.11.343-.078.466-.078a6.712,6.712,0,0,0,.062-2.3c-.185-.233-.651,0-.637-.5-.077-1.041,1.272-.31,1.91-.591Z" transform="translate(-23.999 -8.87)" fill="#1a1818" fill-rule="evenodd"/><path d="M52,74.293a2.547,2.547,0,0,1-.108,1.8c-.931,1.4-2.7,1.351-4.191,1.119a2.57,2.57,0,0,1-1.9-1.615,1.95,1.95,0,0,1,.466-1.77,4.094,4.094,0,0,1,3.617-.9A3.066,3.066,0,0,1,52,74.293" transform="translate(-22.233 -8.872)" fill="#1a1818" fill-rule="evenodd"/><path d="M62.712,11.32c.326.093.776.17.666.636l-.078.265-3.243.031c-.31-.108-.265-.543-.187-.776l.576-.156-.063-.108a3.051,3.051,0,0,0-2,.031c.295.17.883.28.636.883l-.155.125-2.5-.031c-.109-.357-.233.185-.466.109-.713-.3-2.081.436-2.453-.62a1.3,1.3,0,0,0-.573-.87c-.358.032-.931-.091-.978.3.094.466,1.211.184.745,1.008-2.265.215-4.393.031-6.736.185-.278-.109-.233-.543-.156-.806.156-.157.7.155.621-.28a3.732,3.732,0,0,0-2.018,0c-.077.466.576.047.621.512a.471.471,0,0,1-.621.574,7.509,7.509,0,0,1-2.063-.109c-.28-.653.293-.745.759-.854l1.119-2.126c-.155-.326-.575-.141-.761-.42.108-.295,0-.885.558-.761,1.134.156,2.251-.03,3.352.078l1.3,3.181a2.581,2.581,0,0,0,1.134.093A8.872,8.872,0,0,0,49.86,9.1c-.466-.044-1.039-.278-.7-.883l.5-.185,5.012.03c.388.156.9.388,1.009.854.156.714-.278,1.1-.729,1.444.621.233.3,1.288,1.195,1.054.109.188-.015.3.109.528-.125-.543.448-.574.729-.574a17.167,17.167,0,0,0,1.195-2.311c-.5,0-.931-.344-.682-.917l.5-.186,3.415.109Z" transform="translate(-22.093 -6.291)" fill="#1a1818" fill-rule="evenodd"/><path d="M53.772,9.409c.078.511-.544.466-.883.466h-.514a4.208,4.208,0,0,1,.017-.776c.419.108,1.257-.265,1.38.31" transform="translate(-22.497 -6.336)" fill="#fff" fill-rule="evenodd"/><path d="M53.772,9.409c.078.511-.544.466-.883.466h-.514a4.208,4.208,0,0,1,.017-.776C52.811,9.207,53.649,8.834,53.772,9.409Z" transform="translate(-22.497 -6.336)" fill="none" stroke="#fff" stroke-miterlimit="2.613" stroke-width="0.048"/><path d="M53.021,9.019h0Z" transform="translate(-22.523 -6.334)" fill="#fe0" fill-rule="evenodd"/><path d="M53.021,9.019h0Z" transform="translate(-22.523 -6.334)" fill="none" stroke="#fe0" stroke-miterlimit="2.613" stroke-width="0.048"/><path d="M110.92,8.064a1.382,1.382,0,0,1,.854.807,1.183,1.183,0,0,1-.466,1.041c.528.45.949,1.086.466,1.66-1.132,1.1-2.98.373-4.284.653-.466-.156-1.46.31-1.582-.388-.109-.343.2-.514.389-.591h.2a6.883,6.883,0,0,0,.078-2.188c-.232-.187-.743-.062-.729-.528,0-.248.078-.543.419-.5Z" transform="translate(-24.623 -6.294)" fill="#1a1818" fill-rule="evenodd"/><rect width="0.031" height="0.809" transform="translate(99.662 19.711)" fill="#fe0"/><rect width="0.031" height="0.809" transform="translate(99.662 19.711)" fill="none" stroke="#fe0" stroke-miterlimit="2.613" stroke-width="0.048"/><rect width="0.031" height="0.215" transform="translate(99.662 26.728)" fill="#fe0"/><rect width="0.031" height="0.216" transform="translate(99.662 26.728)" fill="none" stroke="#fe0" stroke-miterlimit="2.613" stroke-width="0.048"/><rect width="0.031" height="0.201" transform="translate(99.662 48.24)" fill="#fe0"/><rect width="0.031" height="0.201" transform="translate(99.662 48.24)" fill="none" stroke="#fe0" stroke-miterlimit="2.613" stroke-width="0.048"/><path d="M65.942,72.928c.248.078.883-.156.729.355-.031.311.155.761-.14,1.009l-.977.032a1.839,1.839,0,0,0-1.692-.543c-.078.123-.3.185-.233.418.977.514,2.746-.139,3.12,1.4a1.218,1.218,0,0,1-.481,1.117c-.931.854-2.405.466-3.6.374-.263.279-.807.124-1.117.092a2.081,2.081,0,0,1-.078-1.272c.326-.279.854-.092,1.289-.125a1.643,1.643,0,0,0,1.568.421l.2-.3c-.821-.854-2.824.233-3.164-1.4a1.46,1.46,0,0,1,.854-1.413,5.711,5.711,0,0,1,3.3,0Z" transform="translate(-22.854 -8.871)" fill="#1a1818" fill-rule="evenodd"/><path d="M64.143,73.82h0Z" transform="translate(-22.965 -8.91)" fill="#fe0" fill-rule="evenodd"/><path d="M64.143,73.82h0Z" transform="translate(-22.965 -8.91)" fill="none" stroke="#fe0" stroke-miterlimit="2.613" stroke-width="0.048"/><path d="M101.079,75.023a2.128,2.128,0,0,0,.033-1.086c-.11-.343-.761.03-.606-.528,0-.2-.078-.668.326-.514.7.11,1.754-.34,2,.388.17.466-.341.466-.606.621a22.147,22.147,0,0,0-.109,3.027,3.8,3.8,0,0,1-1.972.155l-1.815-2.218a2.464,2.464,0,0,0-.03,1.3c.447.11.806.156.728.731l-.2.2-2.218-.015a2.5,2.5,0,0,1-.078-.761c1.272-.045.466-1.612.684-2.388-.295-.266-.885-.11-.715-.732.062-.077,0-.2.109-.278a15.635,15.635,0,0,1,2.7,0Z" transform="translate(-24.25 -8.871)" fill="#1a1818" fill-rule="evenodd"/><path d="M41.65,8.141c.388-.078.526.3.466.621a1.866,1.866,0,0,1-.25,1.179c-.651.155-1.3.125-1.645-.574a1.864,1.864,0,0,0-1.5-.2c-.311.015-.621.388-.761.668a1.164,1.164,0,0,0,.559,1.413,1.745,1.745,0,0,0,1.507-.185c.2-.964,1.271-.466,1.97-.606.263.218-.048.5-.125.761A4.2,4.2,0,0,1,37.8,12.362a2.428,2.428,0,0,1-1.771-1.225,2.355,2.355,0,0,1,.3-2.035c1.195-1.4,3.229-1.147,4.781-.854Z" transform="translate(-21.843 -6.294)" fill="#1a1818" fill-rule="evenodd"/><path d="M97.067,8.064a2.48,2.48,0,0,1,.032.761c-.295.078-.871,0-.792.512l.077,1.91,1.182.077c.34-.373-.218-1.3.433-1.3.265,0,.653-.108.713.265-.249.589.156,1.5-.341,1.941-1.582-.156-3.352.03-4.842-.188.078-.2-.109-.543.185-.665.31-.048.776-.078.591-.543-.125-.621.5-2.113-.639-1.957-.215-.109-.06-.434-.137-.651l.293-.185Z" transform="translate(-24.133 -6.294)" fill="#1a1818" fill-rule="evenodd"/><path d="M101.927,8.063c.232.185.078.466.156.7-.156.4-.839-.077-.7.5.156.731-.388,1.848.514,2.113a1.693,1.693,0,0,0,1.226-.156c.466-.466.278-1.274.388-1.879-.078-.543-1.2-.233-.776-1.117l.185-.185c.776.108,1.832-.251,2.406.293.03.388-.156.731-.621.653l-.108.078c-.173.883.185,1.97-.514,2.653-.994.962-2.653.592-3.85.249C99.2,11.4,99.429,10.174,99.4,9.1c-.2-.232-.931-.123-.668-.743-.078-.14.108-.3.2-.326Z" transform="translate(-24.338 -6.294)" fill="#1a1818" fill-rule="evenodd"/><path d="M109.873,9.3v.265c-.293.185-.682.078-1.039.108A1.429,1.429,0,0,1,108.8,9.1c.356-.14.915-.14,1.071.2" transform="translate(-24.74 -6.333)" fill="#fff" fill-rule="evenodd"/><path d="M109.873,9.3v.265c-.293.185-.682.078-1.039.108A1.429,1.429,0,0,1,108.8,9.1C109.159,8.956,109.718,8.956,109.873,9.3Z" transform="translate(-24.74 -6.333)" fill="none" stroke="#fff" stroke-miterlimit="2.613" stroke-width="0.048"/><path d="M60.68,10.174h-.886l.481-1.027a4.293,4.293,0,0,1,.405,1.027" transform="translate(-22.792 -6.339)" fill="#fff" fill-rule="evenodd"/><path d="M60.68,10.174h-.886l.481-1.027A4.293,4.293,0,0,1,60.68,10.174Z" transform="translate(-22.792 -6.339)" fill="none" stroke="#fff" stroke-miterlimit="2.613" stroke-width="0.048"/><path d="M73.11,10.174h-.836l.5-1.027a2.362,2.362,0,0,1,.341,1.027" transform="translate(-23.288 -6.339)" fill="#fff" fill-rule="evenodd"/><path d="M73.11,10.174h-.836l.5-1.027A2.362,2.362,0,0,1,73.11,10.174Z" transform="translate(-23.288 -6.339)" fill="none" stroke="#fff" stroke-miterlimit="2.613" stroke-width="0.048"/><path d="M45.928,10.224H45.2a1.258,1.258,0,0,1,.388-.931,1.9,1.9,0,0,1,.341.931" transform="translate(-22.211 -6.344)" fill="#fff" fill-rule="evenodd"/><path d="M45.928,10.224H45.2a1.258,1.258,0,0,1,.388-.931A1.9,1.9,0,0,1,45.928,10.224Z" transform="translate(-22.211 -6.344)" fill="none" stroke="#fff" stroke-miterlimit="2.613" stroke-width="0.048"/><path d="M110,10.95c.108.263-.185.373-.358.4h-.806v-.606c.388.078.978-.185,1.164.2" transform="translate(-24.742 -6.402)" fill="#fff" fill-rule="evenodd"/><path d="M110,10.95c.108.263-.185.373-.358.4h-.806v-.606C109.224,10.825,109.814,10.562,110,10.95Z" transform="translate(-24.742 -6.402)" fill="none" stroke="#fff" stroke-miterlimit="2.613" stroke-width="0.048"/><path d="M102.125,24.961a4.083,4.083,0,0,1,1.226,3.51l-.108.108a8.469,8.469,0,0,0-3.51-4.191,2.935,2.935,0,0,1,2.391.573" transform="translate(-24.38 -6.941)" fill="#fff" fill-rule="evenodd"/><path d="M102.125,24.961a4.083,4.083,0,0,1,1.226,3.51l-.108.108a8.469,8.469,0,0,0-3.51-4.191A2.935,2.935,0,0,1,102.125,24.961Z" transform="translate(-24.38 -6.941)" fill="none" stroke="#fff" stroke-miterlimit="2.613" stroke-width="0.048"/><path d="M100.758,26.318l1.492,2.654c.045.993-1.3.838-1.958,1.256l-2.048,1.508c-2.235-1.958-4.764-3.51-7.886-2.966.078-1.3,1.725-1.768,2.424-2.777.806-.838,1.955-.838,2.854-1.414a5.277,5.277,0,0,1,5.122,1.74" transform="translate(-24.007 -6.948)" fill="#fff" fill-rule="evenodd"/><path d="M100.758,26.318l1.492,2.654c.045.993-1.3.838-1.958,1.256l-2.048,1.508c-2.235-1.958-4.764-3.51-7.886-2.966.078-1.3,1.725-1.768,2.424-2.777.806-.838,1.955-.838,2.854-1.414A5.277,5.277,0,0,1,100.758,26.318Z" transform="translate(-24.007 -6.948)" fill="none" stroke="#fff" stroke-miterlimit="2.613" stroke-width="0.048"/><path d="M108.388,30.651c-1.039.185-2.033-.838-2.919,0a3.39,3.39,0,0,1,.854,2.857c-.31.418-.278,1.039-.806,1.412a10.679,10.679,0,0,0-2.173-3.585.462.462,0,0,0-.419.17,5.4,5.4,0,0,1,1.458,5.2l-.5.573a4.206,4.206,0,0,0-3.415-2.546l-.156.187a4.424,4.424,0,0,1,2.653,2.126c.311.761.5,1.692.777,2.343l-.171.155c.341.233.171.931.156,1.243-.854.56-1.46-.559-2.235-.093a8.221,8.221,0,0,0,2.67,1.3c.311,1.272-.653,2.281-1.63,3.011a6.555,6.555,0,0,1-2.793,0c-2.406-1.351-1.678-4.16-2.158-6.426a15.1,15.1,0,0,1,1.382-4.937c1.224-1.224,2.544-2.7,4.22-3.2,1.582-.528,3.9-.807,5.2.2" transform="translate(-24.294 -7.167)" fill="#fff" fill-rule="evenodd"/><path d="M108.388,30.651c-1.039.185-2.033-.838-2.919,0a3.39,3.39,0,0,1,.854,2.857c-.31.418-.278,1.039-.806,1.412a10.679,10.679,0,0,0-2.173-3.585.462.462,0,0,0-.419.17,5.4,5.4,0,0,1,1.458,5.2l-.5.573a4.206,4.206,0,0,0-3.415-2.546l-.156.187a4.424,4.424,0,0,1,2.653,2.126c.311.761.5,1.692.777,2.343l-.171.155c.341.233.171.931.156,1.243-.854.56-1.46-.559-2.235-.093a8.221,8.221,0,0,0,2.67,1.3c.311,1.272-.653,2.281-1.63,3.011a6.555,6.555,0,0,1-2.793,0c-2.406-1.351-1.678-4.16-2.158-6.426a15.1,15.1,0,0,1,1.382-4.937c1.224-1.224,2.544-2.7,4.22-3.2C104.771,29.92,107.084,29.642,108.388,30.651Z" transform="translate(-24.294 -7.167)" fill="none" stroke="#fff" stroke-miterlimit="2.613" stroke-width="0.048"/><path d="M108.681,35.031c-.31.573-.185.961-.5,1.552-.994.466.776,1.428-.233,2-.062.156.078.263.185.341a2.617,2.617,0,0,1,.621-.031l-.108,1.413c-.466.388-.761,1.148-1.4,1.226-.374.621-1.072.278-1.492.248a8.344,8.344,0,0,0-.7-1.848c-.293-1.737.078-3.632,1.662-4.549.7-.045,1.489-1.164,1.955-.355" transform="translate(-24.588 -7.356)" fill="#fff" fill-rule="evenodd"/><path d="M108.681,35.031c-.31.573-.185.961-.5,1.552-.994.466.776,1.428-.233,2-.062.156.078.263.185.341a2.617,2.617,0,0,1,.621-.031l-.108,1.413c-.466.388-.761,1.148-1.4,1.226-.374.621-1.072.278-1.492.248a8.344,8.344,0,0,0-.7-1.848c-.293-1.737.078-3.632,1.662-4.549C107.424,35.341,108.216,34.222,108.681,35.031Z" transform="translate(-24.588 -7.356)" fill="none" stroke="#fff" stroke-miterlimit="2.613" stroke-width="0.048"/><path d="M110.117,37.051c-.06.45-.466.761-.621,1.149-.4-.11-.5-.654-.371-.979.185-.263.76-.791.992-.17" transform="translate(-24.751 -7.436)" fill="#fff" fill-rule="evenodd"/><path d="M110.117,37.051c-.06.45-.466.761-.621,1.149-.4-.11-.5-.654-.371-.979C109.31,36.958,109.884,36.43,110.117,37.051Z" transform="translate(-24.751 -7.436)" fill="none" stroke="#fff" stroke-miterlimit="2.613" stroke-width="0.048"/><path d="M95.539,44.043a15.331,15.331,0,0,1-.45,3.352c1.645,1.274,3.522,2.468,5.6,2.142.326.249,1.243-.077,1.29.481a18.089,18.089,0,0,1-4.748-.093c-3.152-1.3-6.008-3.384-9.268-4.393-2.281.125-4.408-.994-6.641-.558-.251-.248.122-.543.388-.559,1.319-.42,2.964.278,4.173.015l-.278-.5.777-3.2c2.5-.9,4.733.761,6.921,1.693.7.62,1.614.761,2.235,1.614" transform="translate(-23.644 -7.584)" fill="#fff" fill-rule="evenodd"/><path d="M95.539,44.043a15.331,15.331,0,0,1-.45,3.352c1.645,1.274,3.522,2.468,5.6,2.142.326.249,1.243-.077,1.29.481a18.089,18.089,0,0,1-4.748-.093c-3.152-1.3-6.008-3.384-9.268-4.393-2.281.125-4.408-.994-6.641-.558-.251-.248.122-.543.388-.559,1.319-.42,2.964.278,4.173.015l-.278-.5.777-3.2c2.5-.9,4.733.761,6.921,1.693C94,43.05,94.918,43.19,95.539,44.043Z" transform="translate(-23.644 -7.584)" fill="none" stroke="#fff" stroke-miterlimit="2.613" stroke-width="0.048"/><path d="M103.944,53.454c0,.14,0,.3-.17.232a2.338,2.338,0,0,1-1.227-1.242c.45-.466.544.621,1.087.654Z" transform="translate(-24.492 -8.055)" fill="#fff" fill-rule="evenodd"/><path d="M103.944,53.454c0,.14,0,.3-.17.232a2.338,2.338,0,0,1-1.227-1.242c.45-.466.544.621,1.087.654Z" transform="translate(-24.492 -8.055)" fill="none" stroke="#fff" stroke-miterlimit="2.613" stroke-width="0.048"/><path d="M105.8,53.42c-.591.419-.746-.543-1.164-.7v-.111a4.792,4.792,0,0,1,1.164.809" transform="translate(-24.574 -8.067)" fill="#fff" fill-rule="evenodd"/><path d="M105.8,53.42c-.591.419-.746-.543-1.164-.7v-.111A4.792,4.792,0,0,1,105.8,53.42Z" transform="translate(-24.574 -8.067)" fill="none" stroke="#fff" stroke-miterlimit="2.613" stroke-width="0.048"/><path d="M101.423,53a5.034,5.034,0,0,0,1.352,1.117c-.358.561-.824-.263-1.243-.293-.109-.2-.62-.746-.109-.824" transform="translate(-24.438 -8.082)" fill="#fff" fill-rule="evenodd"/><path d="M101.423,53a5.034,5.034,0,0,0,1.352,1.117c-.358.561-.824-.263-1.243-.293C101.423,53.621,100.912,53.078,101.423,53Z" transform="translate(-24.438 -8.082)" fill="none" stroke="#fff" stroke-miterlimit="2.613" stroke-width="0.048"/><path d="M99.549,55.255c-.838-.156-1.226-1.041-1.77-1.522l.11-.233c.355.809,1.474.916,1.659,1.755" transform="translate(-24.302 -8.102)" fill="#fff" fill-rule="evenodd"/><path d="M99.549,55.255c-.838-.156-1.226-1.041-1.77-1.522l.11-.233C98.245,54.309,99.363,54.416,99.549,55.255Z" transform="translate(-24.302 -8.102)" fill="none" stroke="#fff" stroke-miterlimit="2.613" stroke-width="0.048"/><path d="M101.076,54.779c-.123.187-.418.125-.589.048-.109-.2-.265-.543-.109-.777a1.338,1.338,0,0,1,.7.729" transform="translate(-24.403 -8.124)" fill="#fff" fill-rule="evenodd"/><path d="M101.076,54.779c-.123.187-.418.125-.589.048-.109-.2-.265-.543-.109-.777A1.338,1.338,0,0,1,101.076,54.779Z" transform="translate(-24.403 -8.124)" fill="none" stroke="#fff" stroke-miterlimit="2.613" stroke-width="0.048"/><path d="M98.113,55.178l.093.359c-.651.107-1.04-.824-1.4-1.195.42.214,1.041.31,1.3.835" transform="translate(-24.263 -8.135)" fill="#fff" fill-rule="evenodd"/><path d="M98.113,55.178l.093.359c-.651.107-1.04-.824-1.4-1.195C97.229,54.557,97.85,54.653,98.113,55.178Z" transform="translate(-24.263 -8.135)" fill="none" stroke="#fff" stroke-miterlimit="2.613" stroke-width="0.048"/><path d="M94,55.307c-.25.014-.25-.3-.388-.45.108-.108.232-.031.388-.048Z" transform="translate(-24.136 -8.153)" fill="#fff" fill-rule="evenodd"/><path d="M94,55.307c-.25.014-.25-.3-.388-.45.108-.108.232-.031.388-.048Z" transform="translate(-24.136 -8.153)" fill="none" stroke="#fff" stroke-miterlimit="2.613" stroke-width="0.048"/><path d="M96.875,55.793c.015.17.17.326.015.419-.591.077-.7-.807-1.2-1.195.31-.341.916.45,1.181.776" transform="translate(-24.219 -8.159)" fill="#fff" fill-rule="evenodd"/><path d="M96.875,55.793c.015.17.17.326.015.419-.591.077-.7-.807-1.2-1.195C96,54.677,96.61,55.468,96.875,55.793Z" transform="translate(-24.219 -8.159)" fill="none" stroke="#fff" stroke-miterlimit="2.613" stroke-width="0.048"/><path d="M93.216,57.364c-.636-.185-.388-1.039-.743-1.489.185-.2-.389-.543-.033-.854.683.543.653,1.5.776,2.343" transform="translate(-24.085 -8.162)" fill="#fff" fill-rule="evenodd"/><path d="M93.216,57.364c-.636-.185-.388-1.039-.743-1.489.185-.2-.389-.543-.033-.854C93.123,55.564,93.093,56.525,93.216,57.364Z" transform="translate(-24.085 -8.162)" fill="none" stroke="#fff" stroke-miterlimit="2.613" stroke-width="0.048"/><path d="M92.14,57.15c.03.17,0,.388-.2.433-.45.047-.31-.466-.543-.651.015-.621.731-.109.746.218" transform="translate(-24.048 -8.227)" fill="#fff" fill-rule="evenodd"/><path d="M92.14,57.15c.03.17,0,.388-.2.433-.45.047-.31-.466-.543-.651C91.409,56.311,92.125,56.822,92.14,57.15Z" transform="translate(-24.048 -8.227)" fill="none" stroke="#fff" stroke-miterlimit="2.613" stroke-width="0.048"/><path d="M90.434,57.448a.777.777,0,0,1-.218.435c-.2-.232-.745,0-.745-.388.2-.31.853-.591.963-.047" transform="translate(-23.972 -8.247)" fill="#fff" fill-rule="evenodd"/><path d="M90.434,57.448a.777.777,0,0,1-.218.435c-.2-.232-.745,0-.745-.388C89.674,57.185,90.324,56.9,90.434,57.448Z" transform="translate(-23.972 -8.247)" fill="none" stroke="#fff" stroke-miterlimit="2.613" stroke-width="0.048"/><path d="M86.145,57.6a1.009,1.009,0,0,1-.2.358c-.419.108-.62-.171-.883-.311-.063-.31.31-.31.465-.466.311-.092.434.341.621.419" transform="translate(-23.796 -8.248)" fill="#fff" fill-rule="evenodd"/><path d="M86.145,57.6a1.009,1.009,0,0,1-.2.358c-.419.108-.62-.171-.883-.311-.063-.31.31-.31.465-.466C85.835,57.093,85.957,57.526,86.145,57.6Z" transform="translate(-23.796 -8.248)" fill="none" stroke="#fff" stroke-miterlimit="2.613" stroke-width="0.048"/><path d="M87.59,74.736c.047.561,0,1.274-.606,1.4a4.544,4.544,0,0,1-1.008.078,4.563,4.563,0,0,1,.092-2.343c.606.032,1.444.077,1.522.868" transform="translate(-23.828 -8.912)" fill="#fff" fill-rule="evenodd"/><path d="M87.59,74.736c.047.561,0,1.274-.606,1.4a4.544,4.544,0,0,1-1.008.078,4.563,4.563,0,0,1,.092-2.343C86.674,73.9,87.512,73.945,87.59,74.736Z" transform="translate(-23.828 -8.912)" fill="none" stroke="#fff" stroke-miterlimit="2.613" stroke-width="0.048"/><path d="M49.895,74.637c.093.544.078,1.3-.5,1.5-.543.078-1.116-.078-1.194-.6a1.19,1.19,0,0,1,.278-1.274.979.979,0,0,1,1.414.373" transform="translate(-22.328 -8.921)" fill="#fff" fill-rule="evenodd"/><path d="M49.895,74.637c.093.544.078,1.3-.5,1.5-.543.078-1.116-.078-1.194-.6a1.19,1.19,0,0,1,.278-1.274A.979.979,0,0,1,49.895,74.637Z" transform="translate(-22.328 -8.921)" fill="none" stroke="#fff" stroke-miterlimit="2.613" stroke-width="0.048"/></g></g></g><script xmlns=""/></svg>